<svg xmlns:inkscape="http://www.inkscape.org/namespaces/inkscape" xmlns:sodipodi="http://sodipodi.sourceforge.net/DTD/sodipodi-0.dtd" xmlns="http://www.w3.org/2000/svg" xmlns:svg="http://www.w3.org/2000/svg" width="27.791958mm" height="8.1134233mm" viewBox="0 0 27.791958 8.1134234" id="svg5" inkscape:version="1.1 (c68e22c387, 2021-05-23)" sodipodi:docname="mandiri.svg"><defs id="defs2"></defs><g inkscape:label="Layer 1" inkscape:groupmode="layer" id="layer1" transform="translate(-169.07505,-28.244758)"><g id="g10524" transform="matrix(0.17864482,0,0,0.17864482,156.37656,9.7032446)"><g id="g10479"><g id="g10435"><g id="g10392"><g id="g10350"><g id="g10309"><g id="g10269"><g id="g10230"><g id="g10192"><g id="g10155"><g id="g10119"><g id="g10084"><g id="g10050"><g id="g10017"><g id="g9985"><g id="g9954"><g id="g9924"><g id="g9895"><g id="g9867"><g id="g9840"><g id="g9814"><g id="g9789"><g id="g9765"><g id="g9742"><g id="g9720"><g id="g9699"><g id="g9679"><g id="g9660"><g id="g9642"><g id="g9625"><g id="g9609"><g id="g9594"><g id="g9580"><g id="g9567"><g id="g9555" transform="translate(-240.01744,-32.376453)"><g id="g9544"><path style="fill:#feb614;fill-opacity:1;stroke:none;stroke-width:1.16506" d="m 378.55522,156.05232 c -2.03513,-0.43404 -3.0652,-1.19551 -5.22189,-3.86026 -1.05332,-1.30142 -1.91531,-2.47068 -1.91555,-2.59836 -2.4e-4,-0.12767 3.60536,-2.29559 8.01246,-4.8176 4.40709,-2.52201 8.4969,-4.86385 9.08845,-5.20409 3.15841,-1.8166 4.08693,-2.17213 6.57473,-2.51739 2.55241,-0.35423 5.33754,0.40403 6.80997,1.85404 0.33055,0.32551 1.34176,1.51143 2.24713,2.63539 0.90539,1.12396 1.85211,2.26127 2.10382,2.52737 0.70695,0.74734 2.10092,1.3694 3.35987,1.49933 2.12721,0.21955 2.20835,0.18215 12.65821,-5.83444 5.34358,-3.07662 6.62671,-3.57004 9.28366,-3.57004 3.12603,0 5.20596,1.06423 7.19184,3.67984 2.04897,2.69869 3.83883,4.38333 4.99216,4.69871 2.50523,0.68504 4.29337,0.11829 9.74221,-3.08779 5.34464,-3.14475 7.14161,-3.16135 9.81589,-0.0907 1.91183,2.19519 3.43966,4.29432 3.37033,4.63055 -0.0354,0.17177 -1.08082,0.89893 -2.32307,1.61591 -1.24228,0.71699 -3.85589,2.2324 -5.80801,3.36758 -5.49438,3.19502 -6.32988,3.5802 -7.73158,3.56447 -2.05362,-0.0231 -2.85456,-0.61661 -6.02442,-4.46457 -0.85932,-1.04315 -2.01198,-2.22312 -2.56145,-2.62214 -1.95407,-1.41905 -4.69019,-1.92984 -7.38799,-1.37923 -2.1901,0.44699 -3.83962,1.19228 -7.91594,3.57658 -1.18823,0.69501 -3.39784,1.97373 -5.27023,3.04993 -0.94647,0.54401 -1.91449,1.10664 -2.1511,1.25029 -1.31054,0.79559 -2.87186,1.4047 -3.84431,1.49974 -1.7591,0.17193 -2.43351,-0.24786 -4.46141,-2.7771 -2.35696,-2.93964 -3.85718,-4.33738 -5.55126,-5.17204 -1.2109,-0.59662 -1.67633,-0.70221 -3.37503,-0.76574 -3.05338,-0.11419 -5.55168,0.68513 -9.65691,3.08974 -1.06479,0.62369 -3.8057,2.21837 -6.09089,3.54373 -5.05408,2.93126 -5.7211,3.15569 -7.95969,2.67826 z" id="path880"></path><path style="fill:#193d6c;fill-opacity:1;stroke:none;stroke-width:1.16506" d="m 426.96765,171.39075 0.0559,-9.73379 h 2.36625 2.36621 l 0.056,9.73379 0.056,9.73378 h -2.47815 -2.47818 z" id="path919"></path><path style="fill:#193d6c;fill-opacity:1;stroke:none;stroke-width:1.16506" d="m 413.57916,171.33697 v -9.78757 h 1.9233 c 1.23139,0 1.97902,0.0901 2.07814,0.25052 0.0851,0.13779 0.2004,0.96059 0.25609,1.82845 0.0557,0.86786 0.18535,1.57792 0.2881,1.57792 0.10274,0 0.18683,-0.12612 0.18683,-0.28028 0,-0.15416 0.2953,-0.68184 0.65621,-1.17262 0.85851,-1.16738 2.46515,-1.94799 4.18378,-2.03277 l 1.29066,-0.0637 0.0613,2.07345 0.0613,2.07344 -1.60506,0.081 c -1.40647,0.071 -1.70679,0.16285 -2.42749,0.74223 -0.45236,0.36365 -1.06445,1.08813 -1.36023,1.60995 -0.53273,0.93985 -0.53839,1.00495 -0.60403,6.91811 l -0.0662,5.96934 h -2.46131 -2.46132 z" id="path958"></path><path style="fill:#193d6c;fill-opacity:1;stroke:none;stroke-width:1.16506" d="m 405.18981,171.33697 v -9.78757 h 2.13352 c 1.17343,0 2.28663,0.0588 2.47377,0.13057 0.30329,0.11638 0.34026,1.18009 0.34026,9.78757 v 9.65699 h -2.47377 -2.47378 z" id="path997"></path><path style="fill:#193d6c;fill-opacity:1;stroke:none;stroke-width:1.16506" d="m 387.67455,181.02066 c -2.32614,-0.95628 -4.20519,-3.29293 -4.96358,-6.17241 -0.48988,-1.85992 -0.36046,-5.72288 0.25103,-7.49251 1.28302,-3.71307 4.31488,-6.03162 7.9363,-6.06914 1.94664,-0.0202 3.69773,0.52415 4.73104,1.47063 0.43724,0.40049 0.82937,0.72818 0.87137,0.72818 0.042,0 0.10247,-2.15381 0.1343,-4.78623 l 0.0579,-4.78623 2.42,-0.0608 2.42001,-0.0608 v 11.69757 c 0,6.43366 0.0631,12.58719 0.14031,13.6745 l 0.14033,1.97694 -2.23767,-0.0617 -2.23764,-0.0617 -0.0641,-1.34445 c -0.0352,-0.73944 -0.10584,-1.34444 -0.15692,-1.34444 -0.0511,0 -0.60305,0.52007 -1.22661,1.15571 -1.4657,1.49409 -2.9462,2.07304 -5.28272,2.06585 -1.25713,-0.004 -1.96779,-0.13202 -2.93341,-0.52899 z m 7.00501,-4.10071 c 1.57231,-1.11072 1.79824,-1.8301 1.79824,-5.72578 v -3.36948 l -0.64822,-0.93275 c -2.19978,-3.16544 -6.74908,-2.25177 -8.05591,1.61792 -1.18901,3.52093 -0.0476,7.60923 2.45068,8.7775 1.33164,0.62271 3.2812,0.46194 4.45521,-0.36741 z" id="path1036"></path><path style="fill:#193d6c;fill-opacity:1;stroke:none;stroke-width:1.16506" d="m 362.33732,171.4983 c -0.0403,-6.24152 0.0135,-9.6818 0.15288,-9.78427 0.33098,-0.24316 3.72083,-0.19416 3.87543,0.056 0.075,0.12136 0.19107,0.75056 0.25791,1.39823 0.0668,0.64767 0.16101,1.17758 0.20924,1.17758 0.0482,0 0.56334,-0.47564 1.14469,-1.05699 1.38184,-1.38183 2.92122,-1.9737 5.17181,-1.98846 2.84502,-0.0187 4.92896,1.33126 6.15681,3.98819 l 0.60814,1.31593 0.0691,7.2672 0.0691,7.26719 -2.4353,-0.061 -2.43533,-0.061 -0.10755,-6.66845 c -0.0995,-6.17124 -0.13963,-6.72291 -0.53777,-7.39886 -0.58448,-0.99231 -1.37124,-1.53673 -2.42501,-1.67807 -1.32308,-0.17746 -2.33584,0.0934 -3.20625,0.85768 -1.50842,1.32442 -1.56495,1.63766 -1.57025,8.70325 l -0.005,6.292 h -2.46533 -2.46534 z" id="path1075"></path><path style="fill:#193d6c;fill-opacity:1;stroke:none;stroke-width:1.16506" d="m 345.71152,181.04863 c -2.21705,-1.03462 -3.48599,-3.28433 -3.2825,-5.81956 0.20879,-2.60084 1.73311,-4.51581 4.49316,-5.6446 1.39947,-0.57236 4.49156,-1.14725 6.18524,-1.14998 l 0.94255,-0.002 -0.12013,-0.89559 c -0.14308,-1.06671 -0.68411,-1.85208 -1.6799,-2.43863 -1.01814,-0.5997 -3.67246,-0.55144 -5.46284,0.0993 -2.22815,0.80988 -2.14449,0.82198 -2.42774,-0.35097 -0.13798,-0.57146 -0.31297,-1.25713 -0.38883,-1.52369 -0.12103,-0.42518 0.007,-0.54886 1.04452,-1.00762 2.37014,-1.04819 6.48948,-1.36033 8.85954,-0.67133 2.29719,0.66781 3.52001,1.827 4.46588,4.23351 0.39563,1.00663 0.46432,1.7012 0.52916,5.35144 0.041,2.30707 0.10083,5.48043 0.13303,7.0519 l 0.0585,2.85723 -2.15426,-0.0608 -2.15424,-0.0608 -0.13108,-0.80905 c -0.0721,-0.44497 -0.19202,-0.86995 -0.26646,-0.94439 -0.0744,-0.0744 -0.51242,0.20534 -0.97331,0.62173 -1.84473,1.66659 -5.42749,2.20999 -7.6703,1.16336 z m 6.70934,-3.64235 c 1.3124,-0.90949 1.64142,-1.66112 1.66215,-3.79707 l 0.0179,-1.84202 -1.18311,-0.0689 c -1.59614,-0.093 -3.74645,0.50963 -4.6504,1.30331 -1.29649,1.13834 -1.41903,3.33136 -0.24578,4.39893 0.69315,0.63075 0.98041,0.70903 2.35124,0.64074 0.904,-0.045 1.43385,-0.20929 2.04805,-0.63495 z" id="path1114"></path><path style="fill:#193d6c;fill-opacity:1;stroke:none;stroke-width:1.16506" d="m 311.15389,171.65963 c -0.0177,-5.20569 -0.0419,-9.58589 -0.0538,-9.73378 -0.0158,-0.19775 0.51912,-0.26889 2.02205,-0.26889 h 2.04355 l 0.1817,1.35639 0.18171,1.35638 1.12143,-1.06061 c 1.3943,-1.31867 2.09631,-1.68688 3.7029,-1.94223 2.75729,-0.43823 4.98148,0.49982 6.3266,2.66825 l 0.40774,0.6573 1.39611,-1.33566 c 1.63987,-1.56885 2.84441,-2.06045 5.0487,-2.06045 2.75452,0 4.74725,1.38472 5.84972,4.06488 0.49803,1.21069 0.51332,1.43379 0.58309,8.50332 l 0.0717,7.26 h -2.36761 -2.36759 l -0.0654,-6.51363 c -0.0652,-6.48905 -0.0675,-6.51767 -0.61128,-7.58268 -1.264,-2.47538 -4.48069,-2.44299 -5.95195,0.0599 l -0.60084,1.02214 -0.068,6.50712 -0.0679,6.50711 h -2.34056 -2.34056 l -0.0653,-6.61467 c -0.0603,-6.11037 -0.098,-6.68006 -0.49547,-7.47228 -0.54736,-1.09112 -1.64137,-1.83129 -2.70671,-1.83129 -1.66961,0 -2.74339,0.7466 -3.5579,2.47379 -0.49599,1.05176 -0.50725,1.21234 -0.50931,7.26 l -0.003,6.18445 h -2.36625 -2.36621 z" id="path1153"></path></g></g></g></g></g></g></g></g></g></g></g></g></g></g></g></g></g></g></g></g></g></g></g></g></g></g></g></g></g></g></g></g></g></g></g></g></g></svg>